<svg width="250" height="34" fill="none" xmlns="http://www.w3.org/2000/svg"><path fill-rule="evenodd" clip-rule="evenodd" d="M234.348 7c3.913 3.5 7.826 7 15.652 7v20H0V13.998C7.61 13.902 11.468 10.45 15.326 7c3.913-3.5 7.826-7 15.652-7s11.74 3.5 15.652 7c3.913 3.5 7.826 7 15.653 7 7.826 0 11.739-3.5 15.652-7 3.913-3.5 7.826-7 15.652-7s11.739 3.5 15.652 7c3.913 3.5 7.826 7 15.652 7 7.758 0 11.644-3.488 15.537-6.982C144.334 3.512 148.247 0 156.087 0c7.826 0 11.739 3.5 15.652 7 3.913 3.5 7.826 7 15.652 7s11.739-3.5 15.652-7c3.914-3.5 7.827-7 15.653-7 7.825 0 11.739 3.5 15.652 7Z" fill="#fff"/></svg>