<svg width="250" height="34" viewBox="0 0 250 34" fill="none" xmlns="http://www.w3.org/2000/svg">
<path fill-rule="evenodd" clip-rule="evenodd" d="M234.348 7C238.261 10.5 242.174 14 250 14V34H0V13.9979C7.60938 13.9021 11.4678 10.451 15.3262 7C19.2393 3.5 23.1523 0 30.978 0C38.8042 0 42.7173 3.5 46.6304 7C50.5435 10.5 54.4565 14 62.2827 14C70.1089 14 74.022 10.5 77.9346 7C81.8477 3.5 85.7607 0 93.5869 0C101.413 0 105.326 3.5 109.239 7C113.152 10.5 117.065 14 124.891 14C132.649 14 136.535 10.5122 140.428 7.01831C144.334 3.51221 148.247 0 156.087 0C163.913 0 167.826 3.5 171.739 7C175.652 10.5 179.565 14 187.391 14C195.217 14 199.13 10.5 203.043 7C206.957 3.5 210.87 0 218.696 0C226.521 0 230.435 3.5 234.348 7Z" fill="white"/>
</svg>
